#!OML:ASF C:\ViconDB\ViconDB\414\Spring2016\041811\Spring2016.ASF
:FULLY-SPECIFIED
:DEGREES
263
root 7.81891 14.404 -34.6564 -173.634 -4.13351 180.532
lowerback 30.5938 1.55579 -1.37225
upperback 4.78768 0.422101 0.706004
thorax -11.4704 -0.244746 1.54409
lowerneck -14.9136 -6.37502 -16.6627
upperneck -2.12569 -7.38114 21.8511
head 3.42462 -3.3004 9.119
rclavicle 3.97569e-015 2.85753e-016
rhumerus -36.2181 -12.509 -82.8129
rradius 36.9454
rwrist 26.7499
rhand -36.723 -13.9133
rfingers 7.12502
rthumb -9.80743 -43.6649
lclavicle 3.97569e-015 2.85753e-016
lhumerus -25.3981 6.94494 81.4871
lradius 25.6044
lwrist -16.0993
lhand -28.2806 18.296
lfingers 7.12502
lthumb -1.65695 48.2693
rfemur -49.6979 -22.5284 20.3756
rtibia 90.1746
rfoot 5.97118 -19.4471
rtoes -2.32046
lfemur -57.8661 15.532 -10.4835
ltibia 88.1974
lfoot -33.101 -8.60329
ltoes -16.9249
264
root 7.82874 14.4921 -34.9124 -173.541 -4.22521 180.318
lowerback 29.9697 1.58239 -1.79861
upperback 4.66198 0.387882 0.694549
thorax -11.3074 -0.220458 1.78475
lowerneck -14.9485 -6.35016 -16.8396
upperneck -2.28346 -7.32171 22.0243
head 3.39035 -3.27651 9.21801
rclavicle 1.16786e-014 -3.41661e-016
rhumerus -34.4758 -8.3964 -83.4945
rradius 40.7858
rwrist 23.8993
rhand -37.5131 -14.1802
rfingers 7.12502
rthumb -10.5696 -43.8944
lclavicle 1.16786e-014 -3.41661e-016
lhumerus -23.9052 4.11456 81.3437
lradius 29.8559
lwrist -14.1744
lhand -28.3837 17.8459
lfingers 7.12502
lthumb -1.75648 47.8184
rfemur -47.759 -22.344 19.944
rtibia 88.9766
rfoot 6.66602 -19.2728
rtoes -2.10518
lfemur -56.0783 15.2154 -10.3756
ltibia 87.2424
lfoot -33.7393 -8.41935
ltoes -17.2549
265
root 7.83483 14.6044 -35.1684 -173.326 -4.42701 180.088
lowerback 29.131 1.498 -2.10234
upperback 4.52498 0.259468 0.595215
thorax -11.039 -0.242906 1.88648
lowerneck -15.1385 -6.35539 -16.718
upperneck -2.28957 -7.34154 22.017
head 3.41812 -3.28423 9.18857
rclavicle 4.1869e-015 6.62201e-015
rhumerus -32.6809 -4.45886 -83.7469
rradius 45.2956
rwrist 19.8377
rhand -38.1074 -14.8509
rfingers 7.12502
rthumb -11.1429 -44.535
lclavicle 4.1869e-015 6.62201e-015
lhumerus -22.3593 1.32357 80.5311
lradius 34.5268
lwrist -11.9883
lhand -28.6307 17.7537
lfingers 7.12502
lthumb -1.99508 47.7241
rfemur -45.8415 -22.271 19.5483
rtibia 87.5317
rfoot 7.38336 -18.9989
rtoes -1.89574
lfemur -54.2808 14.7253 -10.3695
ltibia 86.0003
lfoot -34.3755 -8.08483
ltoes -17.0007
266
root 7.8512 14.7345 -35.4341 -173.334 -4.81429 179.803
lowerback 28.4794 1.40632 -2.53879
upperback 4.37539 0.0857973 0.593861
thorax -10.8741 -0.281447 2.19378
lowerneck -15.2067 -6.36833 -16.8848
upperneck -2.22962 -7.33059 22.0729
head 3.45397 -3.27058 9.23876
rclavicle -2.50344e-015 1.24365e-014
rhumerus -31.0032 -0.760961 -83.196
rradius 50.0647
rwrist 16.3769
rhand -38.8952 -15.8035
rfingers 7.12502
rthumb -11.9026 -45.4452
lclavicle -2.50344e-015 1.24365e-014
lhumerus -20.9308 -1.44746 79.3912
lradius 39.6718
lwrist -9.5373
lhand -28.9125 17.9409
lfingers 7.12502
lthumb -2.26723 47.9086
rfemur -43.4218 -22.3063 19.0098
rtibia 85.839
rfoot 7.51614 -18.7384
rtoes -0.951393
lfemur -52.0426 14.019 -10.3136
ltibia 84.4688
lfoot -34.8719 -7.85767
ltoes -17.303
267
root 7.84863 14.8615 -35.6947 -173.158 -4.85881 179.553
lowerback 27.5741 1.3487 -2.7516
upperback 4.14517 0.0407596 0.453695
thorax -10.672 -0.263186 2.16193
lowerneck -15.2319 -6.38881 -16.9266
upperneck -2.04288 -7.3643 22.0955
head 3.52226 -3.2754 9.25002
rclavicle -1.24613e-014 -5.71506e-015
rhumerus -29.2102 1.94344 -81.9994
rradius 54.3374
rwrist 14.97
rhand -40.0342 -14.856
rfingers 7.12502
rthumb -13.0007 -44.4309
lclavicle -1.24613e-014 -5.71506e-015
lhumerus -19.32 -3.89033 77.7259
lradius 44.9155
lwrist -7.13132
lhand -29.3586 18.1746
lfingers 7.12502
lthumb -2.69805 48.1373
rfemur -41.345 -22.0447 18.5263
rtibia 84.059
rfoot 7.83783 -18.2906
rtoes -0.915959
lfemur -49.9944 13.5652 -10.4425
ltibia 82.8397
lfoot -35.3531 -7.08056
ltoes -18.1592
268
root 7.85646 15.0184 -35.9726 -173.031 -4.82089 179.236
lowerback 26.5251 1.37957 -3.2527
upperback 3.92759 0.0474888 0.4081
thorax -10.3795 -0.210808 2.38407
lowerneck -15.1717 -6.40325 -17.0806
upperneck -1.86148 -7.35504 21.992
head 3.56196 -3.25997 9.2437
rclavicle 1.04983e-014 2.01269e-015
rhumerus -27.2649 4.54827 -80.2852
rradius 59.3089
rwrist 12.9145
rhand -39.8565 -15.1014
rfingers 7.12502
rthumb -12.8294 -44.6871
lclavicle 1.04983e-014 2.01269e-015
lhumerus -17.7179 -6.13959 75.7156
lradius 50.4252
lwrist -4.76518
lhand -30.0768 18.0768
lfingers 7.12502
lthumb -3.39161 48.0296
rfemur -39.0442 -21.6521 18.0064
rtibia 81.9761
rfoot 7.69845 -17.871
rtoes -0.747324
lfemur -47.6525 13.0785 -10.5651
ltibia 80.9187
lfoot -35.6366 -6.38763
ltoes -19.0093
269
root 7.85594 15.1749 -36.2614 -172.951 -4.85183 178.954
lowerback 25.4265 1.31339 -3.52107
upperback 3.66014 -0.00251243 0.25465
thorax -10.1062 -0.192512 2.37002
lowerneck -15.062 -6.37019 -17.111
upperneck -1.50694 -7.3463 22.0342
head 3.65006 -3.24029 9.26718
rclavicle 2.98177e-016 -5.76476e-015
rhumerus -25.1853 6.71949 -78.4316
rradius 65.6235
rwrist 7.15032
rhand -37.9824 -16.8139
rfingers 7.12502
rthumb -11.0223 -46.5046
lclavicle 2.98177e-016 -5.76476e-015
lhumerus -16.0394 -8.0058 73.1655
lradius 55.9289
lwrist -3.28973
lhand -30.4939 18.2051
lfingers 7.12502
lthumb -3.79442 48.1511
rfemur -36.5372 -21.403 17.4209
rtibia 79.735
rfoot 7.81502 -17.4296
rtoes -0.332265
lfemur -45.1066 12.5398 -10.6471
ltibia 78.7639
lfoot -35.7908 -5.87794
ltoes -19.7142
270
root 7.85589 15.3607 -36.5645 -172.948 -4.87264 178.688
lowerback 24.3098 1.25467 -3.84488
upperback 3.3625 -0.0422125 0.177334
thorax -9.85046 -0.165205 2.46982
lowerneck -14.7601 -6.3987 -17.2191
upperneck -1.0977 -7.40319 21.9002
head 3.72701 -3.25618 9.23782
rclavicle -1.76421e-015 6.01324e-015
rhumerus -22.9991 8.36804 -76.0617
rradius 70.6841
rwrist 6.41411
rhand -37.5148 -16.4707
rfingers 7.12502
rthumb -10.5712 -46.1848
lclavicle -1.76421e-015 6.01324e-015
lhumerus -14.2376 -9.33895 70.3636
lradius 61.4268
lwrist -2.13824
lhand -30.5779 18.31
lfingers 7.12502
lthumb -3.87549 48.2545
rfemur -33.6853 -20.9671 16.8752
rtibia 77.127
rfoot 7.30549 -16.9424
rtoes -1.02991
lfemur -42.2396 12.0202 -10.731
ltibia 76.2695
lfoot -35.7515 -5.34456
ltoes -20.368
271
root 7.84763 15.5562 -36.8824 -172.962 -4.74593 178.469
lowerback 23.0402 1.19427 -4.01379
upperback 3.02349 -0.0367225 0.0155984
thorax -9.55459 -0.122759 2.37179
lowerneck -14.3101 -6.36342 -17.2245
upperneck -0.611798 -7.42409 21.7931
head 3.79297 -3.25955 9.20631
rclavicle -4.22417e-016 -1.32192e-014
rhumerus -20.8018 9.8451 -73.5552
rradius 75.6878
rwrist 5.71709
rhand -37.3588 -15.4191
rfingers 7.12502
rthumb -10.4208 -45.1408
lclavicle -4.22417e-016 -1.32192e-014
lhumerus -12.3553 -10.1398 67.3393
lradius 66.6527
lwrist -1.55527
lhand -31.0309 17.6746
lfingers 7.12502
lthumb -4.31298 47.6107
rfemur -30.7613 -20.5486 16.3102
rtibia 74.3778
rfoot 6.4603 -16.3655
rtoes -0.484184
lfemur -39.2193 11.5778 -10.8146
ltibia 73.6236
lfoot -35.5498 -4.7463
ltoes -21.0548
272
root 7.83761 15.7583 -37.2192 -172.966 -4.53713 178.204
lowerback 21.5864 1.15521 -4.42787
upperback 2.71598 -0.0345421 0.0193573
thorax -9.11549 -0.0757827 2.59844
lowerneck -14.2769 -6.34472 -17.3891
upperneck 0.265599 -7.40042 21.5258
head 4.0281 -3.20859 9.14999
rclavicle 4.55962e-015 1.62506e-014
rhumerus -18.2306 11.3947 -70.6034
rradius 80.6069
rwrist 5.07084
rhand -37.0634 -15.0615
rfingers 7.12502
rthumb -10.1358 -44.7974
lclavicle 4.55962e-015 1.62506e-014
lhumerus -10.3198 -10.2596 64.2955
lradius 71.4594
lwrist -1.27903
lhand -31.3324 16.9078
lfingers 7.12502
lthumb -4.60407 46.8377
rfemur -27.8105 -20.2642 15.6782
rtibia 71.5196
rfoot 5.60853 -15.8405
rtoes -0.316793
lfemur -36.0883 11.1209 -11.0004
ltibia 70.8329
lfoot -35.1566 -4.01401
ltoes -21.8825
273
root 7.82355 15.9611 -37.5752 -172.957 -4.26934 178.181
lowerback 19.9257 1.08776 -4.40584
upperback 2.29723 0.0483789 -0.0850822
thorax -8.6817 -0.000778485 2.43441
lowerneck -13.8016 -6.27348 -17.3633
upperneck 1.14312 -7.41018 21.3183
head 4.19489 -3.19793 9.08356
rclavicle -1.49089e-016 -7.95139e-016
rhumerus -15.8865 12.9632 -67.7354
rradius 85.5902
rwrist 3.23373
rhand -37.6737 -15.1272
rfingers 7.12502
rthumb -10.7245 -44.8334
lclavicle -1.49089e-016 -7.95139e-016
lhumerus -8.336 -10.2041 61.0785
lradius 76.1096
lwrist -1.17743
lhand -31.173 16.2823
lfingers 7.12502
lthumb -4.45022 46.2155
rfemur -24.7222 -19.7422 15.2875
rtibia 68.4493
rfoot 4.82297 -14.9648
rtoes 0.122405
lfemur -33.0134 10.8158 -10.9533
ltibia 67.974
lfoot -34.3884 -3.1776
ltoes -22.9426
274
root 7.80704 16.1819 -37.9487 -172.881 -4.1451 178.128
lowerback 18.0931 0.960006 -4.42959
upperback 1.86178 0.0590551 -0.0649091
thorax -8.15377 0.041084 2.45494
lowerneck -13.4061 -6.20587 -17.467
upperneck 2.1939 -7.39435 20.9989
head 4.41882 -3.17076 9.00639
rclavicle 4.31114e-015 -1.5207e-014
rhumerus -13.3119 14.0168 -64.6577
rradius 90.2092
rwrist 1.83246
rhand -37.4813 -15.2142
rfingers 7.12502
rthumb -10.539 -44.93
lclavicle 4.31114e-015 -1.5207e-014
lhumerus -6.34468 -9.92264 58.1382
lradius 80.3899
lwrist -0.191556
lhand -31.3667 15.6175
lfingers 7.12502
lthumb -4.63724 45.5468
rfemur -21.7868 -19.4143 14.87
rtibia 65.4339
rfoot 3.34317 -13.9993
rtoes 0.275927
lfemur -29.9168 10.1363 -10.9129
ltibia 64.9606
lfoot -33.2779 -2.68775
ltoes -22.9993
